<mxfile host="65bd71144e">
    <diagram id="V-5ffxHl8cL99CWiZk6m" name="Página-1">
        <mxGraphModel dx="832" dy="461" grid="1" gridSize="10" guides="1" tooltips="1" connect="1" arrows="1" fold="1" page="1" pageScale="1" pageWidth="827" pageHeight="1169" math="0" shadow="0">
            <root>
                <mxCell id="0"/>
                <mxCell id="1" parent="0"/>
                <mxCell id="2" value="INICIO" style="ellipse;whiteSpace=wrap;html=1;fillColor=#a20025;fontColor=#ffffff;strokeColor=#6F0000;" vertex="1" parent="1">
                    <mxGeometry x="370" y="10" width="100" height="70" as="geometry"/>
                </mxCell>
                <mxCell id="3" value="" style="endArrow=classic;html=1;" edge="1" parent="1">
                    <mxGeometry width="50" height="50" relative="1" as="geometry">
                        <mxPoint x="419.5" y="80" as="sourcePoint"/>
                        <mxPoint x="420" y="120" as="targetPoint"/>
                    </mxGeometry>
                </mxCell>
                <mxCell id="4" value="r" style="shape=parallelogram;perimeter=parallelogramPerimeter;whiteSpace=wrap;html=1;fixedSize=1;fillColor=#60a917;fontColor=#ffffff;strokeColor=#2D7600;" vertex="1" parent="1">
                    <mxGeometry x="360" y="120" width="120" height="60" as="geometry"/>
                </mxCell>
                <mxCell id="5" value="" style="endArrow=classic;html=1;" edge="1" parent="1">
                    <mxGeometry width="50" height="50" relative="1" as="geometry">
                        <mxPoint x="419.5" y="180" as="sourcePoint"/>
                        <mxPoint x="419.5" y="230" as="targetPoint"/>
                    </mxGeometry>
                </mxCell>
                <mxCell id="10" value="&lt;span style=&quot;background-color: rgb(26, 26, 26);&quot;&gt;&lt;font color=&quot;#ffffff&quot;&gt;&lt;font style=&quot;&quot;&gt;p=2&lt;span style=&quot;font-family: Arial, sans-serif; font-size: 14px; text-align: left;&quot;&gt;π&lt;br&gt;A=&lt;/span&gt;&lt;/font&gt;&lt;span style=&quot;font-family: Arial, sans-serif; font-size: 14px; text-align: left;&quot;&gt;π&lt;/span&gt;&lt;span style=&quot;vertical-align: baseline; position: relative; top: -0.4em; font-family: Arial, sans-serif; text-align: left;&quot;&gt;&lt;span style=&quot;font-weight: bold;&quot;&gt;2&lt;/span&gt;&lt;/span&gt;&lt;/font&gt;&lt;/span&gt;&lt;font color=&quot;#ffffff&quot; style=&quot;background-color: rgb(26, 26, 26);&quot;&gt;&lt;span style=&quot;font-family: Arial, sans-serif; font-size: 14px; text-align: left;&quot;&gt;&lt;br&gt;&lt;/span&gt;&lt;/font&gt;" style="rounded=0;whiteSpace=wrap;html=1;strokeColor=#006EAF;fillColor=#1ba1e2;fontColor=#ffffff;" vertex="1" parent="1">
                    <mxGeometry x="365" y="230" width="110" height="60" as="geometry"/>
                </mxCell>
                <mxCell id="11" value="" style="endArrow=classic;html=1;fontColor=#FFFFFF;" edge="1" parent="1" source="10">
                    <mxGeometry width="50" height="50" relative="1" as="geometry">
                        <mxPoint x="420" y="360" as="sourcePoint"/>
                        <mxPoint x="420" y="340" as="targetPoint"/>
                        <Array as="points">
                            <mxPoint x="420" y="340"/>
                        </Array>
                    </mxGeometry>
                </mxCell>
                <mxCell id="12" value="p,a" style="shape=document;whiteSpace=wrap;html=1;boundedLbl=1;labelBackgroundColor=#1A1A1A;strokeColor=#3700CC;fontColor=#ffffff;fillColor=#6a00ff;" vertex="1" parent="1">
                    <mxGeometry x="370" y="340" width="100" height="60" as="geometry"/>
                </mxCell>
                <mxCell id="13" value="" style="endArrow=classic;html=1;fontColor=#FFFFFF;" edge="1" parent="1">
                    <mxGeometry width="50" height="50" relative="1" as="geometry">
                        <mxPoint x="419.5" y="390" as="sourcePoint"/>
                        <mxPoint x="420" y="430" as="targetPoint"/>
                    </mxGeometry>
                </mxCell>
                <mxCell id="14" value="&lt;font color=&quot;#ffffff&quot;&gt;FIN&lt;/font&gt;" style="ellipse;whiteSpace=wrap;html=1;labelBackgroundColor=#1A1A1A;strokeColor=#BD7000;fontColor=#000000;fillColor=#f0a30a;" vertex="1" parent="1">
                    <mxGeometry x="377.5" y="430" width="85" height="60" as="geometry"/>
                </mxCell>
            </root>
        </mxGraphModel>
    </diagram>
</mxfile>